<svg xmlns="http://www.w3.org/2000/svg" class="logo-icon" viewBox="0 -0.001 119.94 117.291" style="--icon-fill-color:#62a9d8"><svg xmlns="http://www.w3.org/2000/svg" class="icon"><g data-name="Layer 2"><g data-name="Retail cl"><path class="cls-1" vector-effect="non-scaling-stroke" d="M0 22.69h17.54l13.2 64.29 67.65 1.95"/><path class="cls-2" d="M49.19 92.27a12.51 12.51 0 1 0 12.51 12.51 12.51 12.51 0 0 0-12.51-12.51Zm0 19.64a7.14 7.14 0 1 1 7.14-7.13 7.14 7.14 0 0 1-7.14 7.13ZM83.47 92.27A12.51 12.51 0 1 0 96 104.78a12.51 12.51 0 0 0-12.53-12.51Zm0 19.64a7.14 7.14 0 1 1 7.13-7.13 7.14 7.14 0 0 1-7.13 7.13Z" vector-effect="non-scaling-stroke"/><path class="cls-3" d="M29.44 30.23v.55l9.31 50.88H98l21.94-51.43Zm41.67 9.67H91l-2.76 7.79H71.11Zm-37 0h14v7.79h-12Zm4.59 22.89-1.68-10h12.17v10ZM51.21 77H40.75l-1.68-10h12.14Zm1.37-24.9h13v10h-13Zm13.81 25.32h-13v-10h13Zm.75-29.73H52.69V39.9h14.45Zm13.69 29.73H70.25V66.88h12.29Zm-10.58-15.3V52h16.58l-2.3 10.14ZM97 77.46H85l2.34-10.08h12Zm5.89-15.34H89l2.7-10.07h13.9Zm-7.23-14.43 2.72-7.79h13.9l-2.76 7.79Z" vector-effect="non-scaling-stroke"/><path class="cls-2" d="M38.92 16.73c-1.72 3.57-.36 8.78 2.73 9.89a5.11 5.11 0 0 0 3.8-.39l.26-1.17a16.47 16.47 0 0 1 .4-1.77 4 4 0 0 1 1-1.63 3.77 3.77 0 0 1 2.06-1 5.76 5.76 0 0 0-.31-6.07 5.44 5.44 0 0 0-3.42-2c-2.86-.33-5.44 1.92-6.52 4.14Z" vector-effect="non-scaling-stroke"/><path class="cls-2" d="m55.57 8.72-2.94-.66a7.07 7.07 0 0 0-3.21.51 23.56 23.56 0 0 0-2.89 1.83l.8-3.54-.59-.13L45.55 12l-.13.59h.86v-1.02a6.53 6.53 0 0 0 4.12.93 7.15 7.15 0 0 0 5.17-3.78ZM60.07 20.22c1.26-.51 3.88-1.87 4.08-4.47 0 0-4.68.79-4.94 4.23v.12c-.34 0-.69-.06-1-.06C53.7 20 50 23 50 26.61s3.68 6.56 8.2 6.56 8.21-2.94 8.21-6.56c.02-3.12-2.7-5.72-6.34-6.39Z" vector-effect="non-scaling-stroke"/><path class="cls-2" d="M58.55 19.39s1.32-5.91-2.62-7.88l-.66-.65a8.81 8.81 0 0 0 .17 3.85 9.08 9.08 0 0 0 3.11 4.68ZM78.65 6.39l-11.26 6.5 4.84 8.38a6.49 6.49 0 1 1 6.29 4.9A6.49 6.49 0 0 1 74 24.33l4.39 7.61 11.26-6.5Z" vector-effect="non-scaling-stroke"/><path class="cls-3" d="m106.69 12.23 1.26 1 8.38-3.81s2.29-3.81 0-3.05-2.33-.71-2.33-.71 3-3.05-.76-2.28-1.52-1.53-1.52-1.53c-1.53-4.57-5.34.76-5.34.76L104.14 8l.76 2.28c-1.53-.65-4.88-1.42-7.62 0L94.42 15 98 18.62l-.76.76L93.85 16l-7.72 12.82a1.84 1.84 0 0 0-.22.84c0 .45-.48.73-.06 1.15s.69 0 1.14-.06a2 2 0 0 0 .86-.23l18.57-11.14c1.49-3.23 1.52-5.29.27-7.15Z" vector-effect="non-scaling-stroke"/></g></g></svg></svg>